<?xml version="1.0" encoding="utf-8"?>
<!-- Generator: Adobe Illustrator 21.1.0, SVG Export Plug-In . SVG Version: 6.00 Build 0)  -->
<svg version="1.1" id="Слой_1" xmlns="http://www.w3.org/2000/svg" xmlns:xlink="http://www.w3.org/1999/xlink" x="0px" y="0px"
	 viewBox="0 0 512 512" style="enable-background:new 0 0 512 512;" xml:space="preserve">
<style type="text/css">
	.st0{fill:#FFFFFF;}
	.st1{fill:#FEFFFF;}
	.st2{fill:#30B9DB;}
	.st3{fill:#333333;}
	.st4{fill:#378BBA;}
</style>
<g id="layer0">
	<path class="st0" d="M10.5,247.8L223,36.8c5.4-5.4,29.2-5.4,34.7-0.1l126,123c2.8,2.8,12.7,10.5,21.4,8.6l3.1,0.2
		c12.5,0,14.2,1.3,19,8c0.2,0.3,2.5,4.2,2.7,4.4l69.4,70.6c5.4,5.4,6.5,17.8,1,23.3l-74.7,76.1c-3.5,3.5-14.5,7.6-19.5,7.6l-6,0.1
		c-5.7,0.1-10.1-0.3-14.2,3.7L257,491.6c-6.3,6.3-29.5,6.3-35.8-0.1L9.4,278.2C4.8,273.5,5.9,252.5,10.5,247.8z"/>
</g>
<g id="layer1">
	<path class="st1" d="M382.9,296.3c-7.9-1.6-12.9-7.2-14.2-16.3c-0.3-1.8-0.5-13.8-0.5-26.7v-23.6h6h6v23.3
		c0,26.4,0.2,27.9,3.1,30.6c3,2.8,8.4,2.8,11.2,0s2.8-3.1,3-29.6l0.2-24.3h5.6h5.5v24.3c0,25.6-0.2,28-2.3,32.8
		c-1.9,4.4-6.3,8-11.3,9.3C392.5,296.8,386.1,296.9,382.9,296.3z"/>
	<path class="st1" d="M228.6,262.7v-33.1H245h16.4v5.6v5.6h-10.6h-10.6v8.4v8.4h9.9h9.9v5.6v5.6h-9.9h-9.9v13.5v13.5h-5.8h-5.8
		v-33.1L228.6,262.7L228.6,262.7z"/>
	<path class="st1" d="M324.3,263.3v-32.6l1.1-0.3c0.6-0.2,3.5-0.5,6.6-0.9c6.4-0.7,14.2-0.3,17.7,0.7c7.6,2.3,11.8,8.7,11.8,17.7
		c0,9-3,15.4-8.6,18.7l-2.2,1.3l1.7,1.5c1.7,1.6,3.9,5.5,10.6,19.5l3.3,6.9h-6.9h-6.9l-5.7-12.7l-5.7-12.7l-2.1-0.5
		c-1.1-0.3-2.3-0.5-2.6-0.5c-0.4,0-0.5,4.3-0.5,13.3v13.3H330h-5.8L324.3,263.3L324.3,263.3z M343.2,260.1c1-0.3,2.4-1.2,3.2-2.2
		c3.7-4.3,3.2-13.3-1-16.3c-1.5-1-5.2-1.6-7.8-1.1l-1.7,0.3v9.8v9.9h2.8C340.2,260.5,342.2,260.3,343.2,260.1z"/>
	<path class="st1" d="M265.3,290.6c0.1-0.3,0.6-3.5,1.4-7.2l1.4-6.9h-2.9c-1.6,0-2.8-0.1-2.8-0.2c0-0.4,1.5-7.3,1.7-8.1
		c0.2-0.6,0.9-0.9,3-1l2.7-0.2l0.9-4.1c1.2-6.1,1.3-5.8-1.8-5.8c-1.5,0-2.7-0.1-2.7-0.2c0-0.4,1.5-7.3,1.7-8.1
		c0.2-0.7,0.8-0.9,2.9-0.9c2.3,0,2.7-0.2,2.9-1c0.2-0.6,0.8-3.6,1.4-6.7l1.1-5.6l4.7-0.2c4.7-0.2,4.7-0.2,4.4,1
		c-0.2,0.6-0.8,3.7-1.4,6.8l-1.1,5.7h3.2h3.2l1.4-6.8l1.4-6.8h4.5c2.4,0,4.5,0.2,4.5,0.4c0,0.2-0.5,3-1.2,6.3
		c-0.7,3.3-1.2,6.1-1.2,6.3c0,0.3,1.2,0.4,2.7,0.4s2.7,0.2,2.7,0.3c0,0.2-0.4,2.2-1,4.6l-1,4.3h-2.6c-1.5,0-2.6,0.1-2.6,0.2
		s-0.4,2.3-1,4.9c-0.5,2.5-1,4.8-1,4.9c0,0.1,1.2,0.2,2.7,0.2c1.5,0,2.7,0.2,2.7,0.4c0,0.3-0.4,2.3-1.7,7.8c-0.3,0.9-0.6,1-2.8,1
		h-2.5l-1.4,7.2l-1.4,7.2h-4.7c-4.2,0-4.7-0.1-4.5-0.8c0.1-0.5,0.6-3.2,1.1-6.2c0.6-2.9,1.1-5.8,1.3-6.4c0.3-1,0.2-1.1-3-1.1
		c-2.9,0-3.2,0.1-3.4,1.1c-0.4,1.4-2.7,13-2.7,13.2c0,0.1-2.1,0.2-4.6,0.2C267.4,291,265.3,290.8,265.3,290.6z M286.3,263.1
		c0.5-2.3,1-4.6,1-5.1c0.3-0.8-0.1-0.9-3-0.7l-3.3,0.2l-0.9,4.1c-1.2,6.1-1.4,5.8,2.2,5.8h3L286.3,263.1z"/>
</g>
<g id="layer2">
	<path class="st2" d="M247.7,430.7c0.1-9.8,0.3-30.7,0.5-46.5l0.3-28.7l7.9-8.2c4.4-4.5,10.2-10.6,13.1-13.4l5.2-5.2h45.9h45.9
		l-21.3,21.6c-11.7,11.9-38.5,38.9-59.4,59.9l-38.2,38.3L247.7,430.7z"/>
	<path class="st2" d="M261.4,182.9L247.5,169l0.3-21.5c0.4-39.2,0.6-54.7,0.6-63.4l0.1-8.5l8.6,8.7c17,17.4,39.1,39.9,46.5,47.2
		c4.1,4.2,17.8,18.1,30.4,30.9c12.6,12.9,25.3,25.8,28.1,28.7c2.9,2.9,5.2,5.3,5.2,5.4s-20.7,0.2-46,0.2h-46L261.4,182.9z"/>
</g>
<g id="layer3">
	<path class="st3" d="M132.6,371.8C73.3,312.4,24.7,263.6,24.7,263.3c0-0.6,216-216.8,216.5-216.8c0.2,0,31.3,31,69.2,68.8
		l68.8,68.8h14h13.9l39.2,39.2c21.5,21.5,39.2,39.3,39.2,39.5c0,0.2-17.3,17.7-38.6,38.9l-38.5,38.5h-14h-14l-69.8,69.8
		c-38.4,38.4-69.9,69.7-70.1,69.7C240.6,479.8,191.9,431.2,132.6,371.8z M233,410.6c-0.3-21-0.5-41.9-0.5-46.5v-8.4l-30.1-30.3
		c-16.5-16.7-37.4-37.7-46.4-46.8l-16.4-16.5l46.9-46.3l46.9-46.3l-0.3-26.3c-0.2-14.5-0.4-35.5-0.6-46.7L232.2,76l-92.9,93.3
		c-51.1,51.4-92.9,93.5-92.9,93.7c0,0.5,186.6,186,186.8,185.8C233.3,448.7,233.2,431.5,233,410.6z M384.9,328.6l17.9-0.1l6.8-7.1
		c3.7-3.9,18.2-18.8,32.1-33.2l25.3-26.2L435,229.3l-32-32.6h-17.6h-17.5l-59.6-60.5c-32.8-33.4-59.6-60.5-59.7-60.5
		c-0.1,0.1-0.3,21-0.6,46.6l-0.5,46.5l13.9,13.9l13.9,13.9h-22h-22l-16.2,16.1c-8.9,8.8-23.8,23.5-33,32.7l-16.8,16.6l33.2,33.2
		l33.2,33.2l21.2,0.1l21.2,0.2L261.4,342l-12.9,13.2l-0.5,41.7c-0.3,22.9-0.5,44-0.5,46.8l0.1,5l59.8-60l59.8-60L384.9,328.6z"/>
</g>
<g id="layer4">
	<path class="st4" d="M355.7,339.7l10.9-11h-45.9h-45.8l-1.7,1.6l-1.7,1.6l1.4-1.6l1.5-1.6H253h-21.2l-33.2-33.2l-33.2-33.2
		l16.8-16.6c9.2-9.2,24.1-23.9,33-32.7l16.2-16.1h68.1c37.5,0,76.1,0,85.9,0H403l31.9,32.6l31.9,32.6l-25.3,26.2
		c-13.8,14.4-28.3,29.4-32.1,33.2l-6.8,7.1l-17.9,0.1l-17.9,0.1l-11.1,11l-11.1,11L355.7,339.7z M395.2,296.1
		c5-1.4,9.4-4.9,11.3-9.3c2.1-4.8,2.3-7.2,2.3-32.8v-24.3h-5.5h-5.6l-0.2,24.3c-0.2,26.5-0.2,26.8-3,29.6s-8.3,2.8-11.2,0
		c-3-2.7-3.1-4.2-3.1-30.6v-23.3h-6h-6v23.6c0,13,0.3,25,0.5,26.7c1.3,9.1,6.2,14.7,14.2,16.3C386.1,296.9,392.5,296.8,395.2,296.1z
		 M240.2,282.3v-13.5h9.9h9.9v-5.6v-5.6h-9.9h-9.9v-8.4v-8.4h10.6h10.6v-5.6v-5.6H245h-16.4v33.1v33.1h5.8h5.8L240.2,282.3
		L240.2,282.3L240.2,282.3z M335.9,282.5c0-9.1,0.2-13.3,0.5-13.3c0.3,0,1.5,0.3,2.6,0.5l2.1,0.5l5.7,12.7l5.7,12.7h6.9h6.9
		l-3.3-6.9c-6.7-14-8.8-18-10.6-19.5l-1.7-1.5l2.2-1.3c5.6-3.3,8.6-9.7,8.6-18.7s-4.3-15.3-11.8-17.7c-3.5-1-11.2-1.4-17.7-0.7
		c-3,0.3-6,0.7-6.6,0.9l-1.1,0.3v32.6v32.6h5.8h5.8L335.9,282.5L335.9,282.5L335.9,282.5z M274.5,290.8c0-0.2,2.3-11.8,2.7-13.2
		c0.3-1,0.5-1.1,3.4-1.1c3.1,0,3.2,0.1,3,1.1c-0.2,0.6-0.7,3.5-1.3,6.4c-0.5,3-1,5.7-1.1,6.2c-0.2,0.7,0.3,0.8,4.5,0.8h4.7l1.4-7.2
		l1.4-7.2h2.5c2.2,0,2.5-0.2,2.8-1c1.2-5.5,1.7-7.4,1.7-7.8c0-0.3-1.2-0.4-2.7-0.4c-1.5,0-2.7-0.1-2.7-0.2c0-0.1,0.4-2.3,1-4.9
		c0.5-2.5,1-4.8,1-4.9c0-0.1,1.1-0.2,2.6-0.2h2.6l1-4.3c0.6-2.3,1-4.4,1-4.6c0-0.2-1.2-0.3-2.7-0.3s-2.7-0.2-2.7-0.4s0.5-3,1.2-6.3
		c0.7-3.3,1.2-6.1,1.2-6.3c0-0.3-2-0.4-4.5-0.4H292l-1.4,6.8l-1.4,6.8h-3.2h-3.2l1.1-5.7c0.6-3.1,1.2-6.2,1.4-6.8
		c0.3-1.1,0.3-1.1-4.4-1l-4.7,0.2l-1.1,5.6c-0.6,3-1.2,6-1.4,6.7c-0.3,0.9-0.6,1-2.9,1c-2,0-2.7,0.2-2.9,0.9
		c-0.3,0.8-1.7,7.8-1.7,8.1c0,0.1,1.2,0.2,2.7,0.2c3.1,0,3-0.3,1.8,5.8l-0.9,4.1l-2.7,0.2c-2.1,0.1-2.8,0.3-3,1
		c-0.3,0.8-1.7,7.8-1.7,8.1c0,0.1,1.2,0.2,2.8,0.2h2.9l-1.4,6.9c-0.8,3.7-1.4,7-1.4,7.2c0,0.2,2.1,0.4,4.6,0.4
		C272.4,291,274.5,290.9,274.5,290.8z"/>
	<path class="st4" d="M139.8,356.2c-51.4-51-93.3-92.9-93.3-93.1c-0.1-0.2,41.8-42.4,92.9-93.7L232.2,76l0.3,20.4
		c0.2,11.2,0.4,32.2,0.6,46.7l0.3,26.3l-46.9,46.3l-46.9,46.3l16.4,16.5c9.1,9.1,29.9,30.1,46.4,46.8l30.1,30.3v8.4
		c0,4.6,0.3,25.5,0.5,46.5c0.3,21,0.3,38.2,0.3,38.3C233.2,449,191.1,407.3,139.8,356.2z"/>
	<path class="st4" d="M335.9,250.6v-9.8l1.7-0.3c2.6-0.5,6.4,0.1,7.8,1.1c4.2,3,4.7,12,1,16.3c-1.7,1.9-3.9,2.7-7.8,2.7h-2.8
		L335.9,250.6L335.9,250.6z"/>
	<path class="st4" d="M279.3,266.5c0.1-0.5,0.4-2.7,0.9-5l0.9-4.1l3.3-0.2c3-0.2,3.2-0.1,3,0.7c-0.1,0.5-0.6,2.8-1,5.1l-0.8,4.2h-3
		C279.9,267.3,279.3,267.2,279.3,266.5z"/>
</g>
</svg>
